<svg xmlns="http://www.w3.org/2000/svg" width="120" height="46"><path fill="#c00" d="M120 32c-9 4-10 4-24 1l-12-6q-5-3-9-2c-4 2-3 8 1 9q6 3 13 3l9 1H76c-5-1-8-7-9-9s-9-3-9 1c-9 1-3 8 1 8q5 2 9 0 8-1 12 3 6 2-1 1-9-2-20 0-6 1-13-3-5-7-11-9-7-2-9 5c-2 4 9 6 4 5q0-2 19 4h-8q-9 0-20-1-7-2-12-7c-5-5-5-7-6-15C1 9 9 5 7 7q4-3 9-5l10-1c9 4 16 1 23 2Q44 7 32 7q-7 1-11 7 2 7 9 5 7-6 16-10 13-4 27-4l-6 3q-11 3-21 6c-4 2-6 9-1 10 5 0 8-5 12-7q9-7 20-10 11-2 19 1L82 9q-5 1-9 3l-6 4c-3 4 2 8 6 5q5-5 9-7 8-5 26-2s9 2 9 4-10-3-10-2l-11-1c-9 1-9 4-9 9q2 5 5 6c4 3 15 5 25 3"/><path fill="#f60" d="M110 34q-13 1-22-6-6-4-13-5c-5 1-7 9-2 11q8 4 17 4-8 1-16-2c-6-2-7-11-14-12q-11 0-14 8c-1 5 5 7 9 7q8-2 15 0h-7c-6 0-14 2-19-2q-5-5-12-9-9-5-16 1-4 7 3 10c7 3 8 1 12 1l9 2q-7-1-15-1-11 0-16-8-5-5-6-12 1-9 8-14 8-4 15-5c1 3 14 0 20 1-3 4-16-1-23 4q-8 4-5 11c3 7 8 5 12 3q10-9 21-12l9-1q-9 2-18 7c-3 2-6 8-1 11s9-2 14-5c6-3 12-10 20-11q7-3 15-1c-1 0-7-4-10 0q-15 0-16 7c-2 4 1 9 6 7 6-1 10-7 16-9s13-2 23-2l10 4c-10-2-10-3-20-3l-12 2c-4 2-4 9 0 11q5 5 11 6l11 2"/><path fill="#fc0" d="M120 30c-10 2-10 2-20 1l-9-2q-14-8-12-5c-9-2-9 5-9 7 4 4 3 2 9 2 7 0 16 4 16 3l-22-1c-1-1-7-13-17-11-6 1-16 5-9 7h14q6 1 10 4-9-2-21-2-7 0-12-4c-4 3-17-6-22-2-3 4 9 7 13 6 6-2 14 3 19 5l-13-1q-8 0-17-3c-9-3-6-3-9-7s-3-11 2-14q5-3 11-4c8-1 11 3 18 0q7-1 13 0c6 0-17 4-22 4-8 1-16-3-15 2q4 12 16 7 14-8 29-11c6-1 11-5 6-1s-9 5-14 6q-12 1-16 7c-1 4 13 2 15 0q9-6 18-10 5-2 9-2h9l-11 2-14 5c-5 3 5 7 8 5l6-3q11-5 18-5c15 0 15 1 25 3l-21-1c-6-1-8 0-14 2q-6 4 1 6c10 3 9 5 24 5z"/></svg>