<svg xmlns="http://www.w3.org/2000/svg" width="120" height="46"><path fill="#c00" d="m83 22 13 3 4 1c10 5 20 9 20 11-10 1-10-5-21-6q-5-2-10-5c-3-1-9-4-10-1q10 6 21 6c0 2 9 4 9 6 9 0 9 0 9 2-9 3-20 3-25 0-6-3-7-7-11-8-9 0-9-4-11-2 4 2 8-1 12 3 4 3-3 3-5 2q-7 0-13-5l-8-2 16 9c8 2 17 1 24 6q3 3-1 2-7 0-12-4l-14-3c-5-3-8-9-14-9-3-2-13 0-8 4q6 3 13 3 7-1 12 3l13 5c5 2-3 0-5 0q-5-1-11-3-14-4-26-9c-5-4 3-5 6-6q7-3 15 0 9-1 16-3zm1 0q10 1 16 1c9 3 9-4 20-6l-12-2v3q-25 2-47 5 7-2 16-3 10-2 19-7c2-3 12-3 12-3h9c-7-3-17-4-21-2-5-2-8 2-11 4l-11 5-24 7-5 1q13-5 24-8 10-2 16-8c3-5-5-2-7-2-4 2-8 0-9 2l-19 8c 9 1-4 1-1-1q-7-1-9 0l-10 2q5-3 11-2 5-5 12-4l26-6c4-3-5-2-9-1q 9 0-9 3-10 4-20 5c-5 2-11-1-14 5-1 2-7 6-7 2 2-2 9-3 7-5-3-1-9 2-11-1 1-2 9-2 6-5-3 1 3 3-1 2q7-2 15-2l20-2 9-1c-5 0-10-5-15-3-10 0-19-4-29-1Q13 4 9 12q1 10 4 21c0 9 7 11 13 11 5 0 11-3 15 0q9 3 18 2 4 0 1-1-15-4-31-7-5-2-11-2c-2-2 1-1 0 0 2-1 9 3 6-2q-2-5 4-3l23 10c9 0 9 6 25 4 3-1-3-4-5-4l-15-6q-13-8-28-8h-1"/><path fill="#fc0" d="M120 37c-9-1-9-3-20-6q-5-3-11-3-7-1-15 1-7 2-14 0-4 0-1 2 6 2 13 2 8-1 16 4l8 5q-8-5-17-4c-4-1-7-6-12-4q-7 1-13-2c-2-2-7-7-8-2 3 4 9 3 13 6 4 1 9-1 13 2 1 2 7 6 6 7-6-4-14-4-21-8q-8 0-15-3-5-4-11-6c-3-2-10-2-12 2 2 6 8 4 11 2 6-1 8 6 14 7 5 1 12 0 16 5 0 2-5-1-6-1-12-3-24-2-35-5q-9-5-11-14-1-9 6-13 6-3 12-4 6 1 11 0 7-1 12 0l4-1c4-5 1 3-9 5l-22 3c-5 2-4 11 2 9 6 0 9-6 15-5 5-3 11-2 16-5q9-5 18-5c5 1-3 2-5 3q-6 1-11 5c-5 4-10 1-15 3-3-1-9 5-3 5q7-2 14-1c7 0 11-7 17-10l14-2c6 0-2 2-3 3q-6 7-13 7c-3 0-11 2-8 7q7 1 12-3 6-5 14-8 7-1 13-4l9 1 9 1c-9 1-9 5-20 4q-8-1-17 5c0 5 6 7 9 8l7 2c0 2 9 5 9 3"/></svg>