<svg xmlns="http://www.w3.org/2000/svg" width="120" height="46"><path fill="#f90" d="M83 22q9 1 17 4c10 0 10 4 20 4q-16 1-24-2c-5 0-9-4-14-4-2 1-5 1-1 2q8 7 19 7c0 2 10 1 10 4H99l-15-7c-3-1-10-5-10-1 2 5 7 0 10 3 5 2-2 0-4 1q-7 0-13-5l-8-2 15 10c7 2 15 0 22 4 4 2-3 0-5 1q-6 1-11-2l-11-4q-4-6-12-7c-3-2-13 0-8 4q6 3 13 3 7-1 12 3 6 3 12 3c5 1-4 0-5 1l-11-2-25-9c-5-4 3-5 6-6q8-3 15 0 9-1 16-3zm1 0 16-1 20-1c0-2-10-1-10-1q-14-2-24 0l-23 4c5-1 9-6 14-4 5 1 8-5 14-6l19-3c-10 1-14-2-20 0q-5 3-11 6-15 2-29 6c-2 1-6 2-2 0q13-5 25-7 9-2 16-6c2-1 7-4 2-3q-12 1-25 4-8 6-16 8c-8 2-9 7-14 5-2-1-8-1-7-3l14-5 36-7c3-3-4-3-6-2q-8 0-17 3-9 4-19 4-8 0-12 5c-1 2-7 4-6 1q5-2 9-5c-5-1-10 3-14-1 0-4 8-6 11-4q7-1 14-3c7 0 13 5 20 2 3-1 9-2 8-3L52 2Q42 2 34 4c-7 0-13-4-20-1Q6 6 9 14v18q2 9 8 10c9 3 17-1 25 0l21 1-18-3c-4-3-11 1-15-3q-7-1-12-3c-3-3 1-4 3-3h12l20 10q10 1 19 1 4-1 0 0l-19-4c-8-4-14-11-23-11l-15-1"/><path fill="#f60" d="M120 30c-10 1 0 7-10 5 0-1-15-5-20-4q-6-3-11-7c-1 0-8-1-9 3-2 5 4 7 7 5q11 0 19 5c2 2-2 0-3 1l-20-3q-5-8-13-11-8-1-14 3c-5 4 3 5 5 4 4-1 9-4 13-1 2 2 7 5 6 6q-10-3-22-3-7 0-13-5-9-5-18-2c-6 3 3 6 6 5q6 0 12 1 10 4 18 9l-27-5c-6-1-11 2-15-1-3-3-6-11-5-16q1-8 7-11c6-2 14 2 20 0 4-1 8-4 13-1l11 2-28 5q-6 0-13-1-2 6 5 9 5 3 11-1 13-8 28-12c2 0 17-3 17-1-5 5-23 9-30 10q-7 0-11 5c1 4 8 2 11 2l14-8q6-2 12-2 4-3 8-4l15-2-17 7q-7 0-15 3c-2 4 7 1 10 0 6-3 10-2 17-5 6-3 19-4 19-1 0 2 10 5 10 5l-25-1c-4 0-4-1-8 2q-1 6 6 8 11 5 27 3"/></svg>