<svg xmlns="http://www.w3.org/2000/svg" viewBox="-10 -10 120 100" width="100" height="80">
  <g transform="rotate(-32 50 40)">
    <path d="M50 40 Q-5 -5 -5 40 Q-5 85 50 40" fill="#CE54FF" stroke="#8E44AD" stroke-width="3"/>
  </g>
  <g transform="rotate(32 50 40)">
    <path d="M50 40 Q-5 85 -5 40 Q-5 -5 50 40" fill="#B544E3" stroke="#6A1B9A" stroke-width="3"/>
  </g>
  <g transform="rotate(32 50 40)">
    <path d="M50 40 Q105 -5 105 40 Q105 85 50 40" fill="#CE54FF" stroke="#8E44AD" stroke-width="3"/>
  </g>
  <g transform="rotate(-32 50 40)">
    <path d="M50 40 Q105 85 105 40 Q105 -5 50 40" fill="#B544E3" stroke="#6A1B9A" stroke-width="3"/>
  </g>
  <line x1="50" y1="40" x2="76" y2="16" stroke="#000" stroke-width="1.6"/>
  <line x1="50" y1="40" x2="26" y2="16" stroke="#000" stroke-width="1.6"/>
  <line x1="50" y1="40" x2="26" y2="62" stroke="#000" stroke-width="1.6"/>
  <line x1="50" y1="40" x2="80" y2="62" stroke="#000" stroke-width="1.6"/>
  <line x1="50" y1="40" x2="84" y2="50" stroke="#000" stroke-width="1.2"/>
  <line x1="50" y1="40" x2="16" y2="50" stroke="#000" stroke-width="1.6"/>
  <line x1="50" y1="40" x2="84" y2="30" stroke="#000" stroke-width="1.6"/>
  <line x1="50" y1="40" x2="16" y2="30" stroke="#000" stroke-width="1.6"/>
  <circle cx="15" cy="12" r="4.5" fill="#000" opacity="0.35"/>
  <circle cx="85" cy="12" r="4.5" fill="#000" opacity="0.35"/>
  <ellipse cx="50" cy="38" rx="3.8" ry="16" fill="#000" stroke="#000" stroke-width="1"/>
</svg>