<svg xmlns="http://www.w3.org/2000/svg" width="100" height="80" viewBox="-10 -10 120 100"><path fill="#ce54ff" stroke="#8e44ad" stroke-width="3" d="M50 40q-70-9-47 29 24 38 47-29"/><path fill="#b544e3" stroke="#6a1b9a" stroke-width="3" d="M50 40q-70 9-47-29 24-38 47 29"/><path fill="#ce54ff" stroke="#8e44ad" stroke-width="3" d="M50 40q70-9 47 29-24 38-47-29"/><path fill="#b544e3" stroke="#6a1b9a" stroke-width="3" d="M50 40q70 9 47-29-24-38-47 29"/><path stroke="#000" stroke-width="1.6" d="m50 40 26-24M50 40 26 16M50 40 26 62M50 40l30 22"/><path stroke="#000" stroke-width="1.2" d="m50 40 34 10"/><path stroke="#000" stroke-width="1.6" d="M50 40 16 50M50 40l34-10M50 40 16 30"/><circle cx="15" cy="12" r="4.5" opacity=".3"/><circle cx="85" cy="12" r="4.5" opacity=".3"/><ellipse cx="50" cy="38" stroke="#000" rx="3.8" ry="16"/></svg>